<svg width="77" height="77" viewBox="0 0 77 77" fill="none" xmlns="http://www.w3.org/2000/svg">
<path d="M38.0818 46.5392L63.4697 71.9339C65.8054 74.2702 69.5925 74.2713 71.9296 71.9365V71.9365C74.2678 69.6005 74.269 65.8111 71.9322 63.4737L46.5471 38.0818L71.9342 12.6948C74.2701 10.3589 74.2701 6.57167 71.9342 4.23578V4.23578C69.599 1.90055 65.813 1.89979 63.4769 4.23407L38.0818 29.6086L12.6945 4.22808C10.3584 1.89256 6.57158 1.89193 4.23464 4.22666V4.22666C1.89614 6.56295 1.895 10.3528 4.23208 12.6905L29.6166 38.0818L4.22865 63.4697C1.89291 65.8055 1.89202 69.5922 4.22666 71.929V71.929C6.56286 74.2675 10.3527 74.2684 12.69 71.931L38.0818 46.5392Z" fill="#9CA3AF"/>
</svg>
