<svg width="49" height="49" viewBox="0 0 49 49" fill="none" xmlns="http://www.w3.org/2000/svg">
<path d="M24.0668 0C10.7783 0 0 10.7783 0 24.0668C0 37.3553 10.7783 48.1336 24.0668 48.1336C37.3553 48.1336 48.1336 37.3553 48.1336 24.0668C48.1336 10.7783 37.3553 0 24.0668 0ZM9.57497 18.1795C9.59156 17.3669 9.92602 16.5931 10.5066 16.0243C11.0872 15.4555 11.8676 15.1369 12.6804 15.1369C13.4932 15.1369 14.2736 15.4555 14.8541 16.0243C15.4347 16.5931 15.7692 17.3669 15.7858 18.1795C15.7692 18.9921 15.4347 19.7659 14.8541 20.3347C14.2736 20.9036 13.4932 21.2222 12.6804 21.2222C11.8676 21.2222 11.0872 20.9036 10.5066 20.3347C9.92602 19.7659 9.59156 18.9921 9.57497 18.1795ZM24.0668 35.7768C18.5353 35.7768 14.0002 31.4227 13.7155 25.9689C13.712 25.8988 13.7228 25.8287 13.7472 25.7629C13.7716 25.697 13.8092 25.6369 13.8576 25.5861C13.906 25.5352 13.9643 25.4948 14.0288 25.4671C14.0934 25.4395 14.1629 25.4253 14.2331 25.4254H17.3449C17.6167 25.4254 17.8496 25.6325 17.869 25.9042C18.1148 29.1066 20.7997 31.6362 24.0668 31.6362C27.334 31.6362 30.0253 29.1066 30.2647 25.9042C30.2841 25.6325 30.517 25.4254 30.7887 25.4254H33.9006C33.9708 25.4253 34.0403 25.4395 34.1048 25.4671C34.1693 25.4948 34.2276 25.5352 34.276 25.5861C34.3244 25.6369 34.362 25.697 34.3864 25.7629C34.4109 25.8287 34.4217 25.8988 34.4181 25.9689C34.1335 31.4227 29.5983 35.7768 24.0668 35.7768ZM35.4533 21.2849C34.6406 21.2683 33.8669 20.9339 33.2981 20.3533C32.7292 19.7727 32.4106 18.9923 32.4106 18.1795C32.4106 17.3667 32.7292 16.5863 33.2981 16.0057C33.8669 15.4252 34.6406 15.0907 35.4533 15.0741C36.2659 15.0907 37.0396 15.4252 37.6085 16.0057C38.1773 16.5863 38.4959 17.3667 38.4959 18.1795C38.4959 18.9923 38.1773 19.7727 37.6085 20.3533C37.0396 20.9339 36.2659 21.2683 35.4533 21.2849Z" fill="white"/>
</svg>
